<?xml version="1.0" encoding="UTF-8"?>
<svg width="500px" height="300px" viewBox="0 0 500 300" version="1.1" xmlns="http://www.w3.org/2000/svg" xmlns:xlink="http://www.w3.org/1999/xlink">
    <!-- Generator: Sketch 60 (88103) - https://sketch.com -->
    <title>mdpi/编组</title>
    <desc>Created with Sketch.</desc>
    <defs>
        <polygon id="path-1" points="0 299.578355 499.653547 299.578355 499.653547 -1.13686838e-13 0 -1.13686838e-13"></polygon>
    </defs>
    <g id="2-运营界面" stroke="none" stroke-width="1" fill="none" fill-rule="evenodd" opacity="0.7">
        <g id="2-1--404" transform="translate(-589.000000, -299.000000)">
            <g id="编组" transform="translate(589.000000, 299.000000)">
                <path d="M428.155709,191.064026 L109.429931,191.064026 C79.1427336,191.064026 54.5899654,166.49 54.5899654,136.176147 L54.5899654,117.164026 C54.5899654,86.8501732 79.1427336,62.2761472 109.429931,62.2761472 L428.155709,62.2761472 C458.442907,62.2761472 482.995675,86.8501732 482.995675,117.164026 L482.995675,136.176147 C482.995675,166.49 458.442907,191.064026 428.155709,191.064026" id="Fill-1" fill="#F0F3FE"></path>
                <path d="M428.155709,190.847576 L413.605104,190.847576 L375.596021,190.847576 L322.259516,190.847576 L261.512543,190.847576 L202.12846,190.847576 L151.445502,190.847576 L118.185986,190.847576 C108.550606,190.847576 99.2448097,190.812511 89.9952422,187.28697 C76.8006055,182.257532 65.8654844,172.055801 59.8957612,159.253203 C56.791955,152.597792 55.0765571,145.326797 54.8356401,137.988268 C54.7145329,134.291732 54.8062284,130.580476 54.8062284,126.883074 C54.8062284,123.242381 54.740917,119.594762 54.8196367,115.954502 C54.9762111,108.693896 56.5834775,101.495195 59.541955,94.8635931 C65.2928201,81.9713853 76.0947232,71.5938961 89.1967993,66.3653247 C95.9922145,63.6532035 103.165657,62.4925974 110.457612,62.4925974 L117.957612,62.4925974 L150.99481,62.4925974 L201.342561,62.4925974 L261.084343,62.4925974 L321.649654,62.4925974 L375.103806,62.4925974 L413.412197,62.4925974 C418.32526,62.4925974 423.239187,62.4696537 428.152249,62.4925974 C442.204152,62.5579654 455.825692,67.9627273 465.978374,77.7190043 C476.348616,87.6839394 482.45545,101.567056 482.766436,115.954502 C482.924308,123.275281 482.987457,130.668788 482.75,137.988268 C482.287197,152.264459 476.112457,165.975281 465.775087,175.814675 C455.642301,185.459264 442.111159,190.772251 428.155709,190.847576 C427.877163,190.848874 427.87673,191.281775 428.155709,191.280476 C455.888841,191.13026 479.888841,169.872684 482.890138,142.1571 C483.773356,133.999091 483.241782,125.550606 483.211938,117.358831 C483.164792,104.443247 478.761246,91.8865368 470.491349,81.9345887 C461.821799,71.5016883 449.376298,64.5107792 435.946367,62.6090476 C432.495675,62.120303 429.047578,62.059697 425.577422,62.059697 L399.842561,62.059697 L353.402682,62.059697 L294.820502,62.059697 L232.661332,62.059697 L175.487024,62.059697 L131.862457,62.059697 L110.350779,62.059697 C89.1634948,62.059697 69.450692,73.6566667 60.0129758,92.8436797 C57.099481,98.7666234 55.274654,105.202554 54.6349481,111.773117 C54.2288062,115.941948 54.3737024,120.167056 54.3737024,124.350173 C54.3737024,134.862727 54.0441176,145.148009 57.7461073,155.206883 C65.7474048,176.946277 86.842128,191.248442 109.865917,191.280476 C116.365484,191.289567 122.865052,191.280476 129.364187,191.280476 L171.62154,191.280476 L227.865052,191.280476 L289.942474,191.280476 L349.117215,191.280476 L396.824394,191.280476 L424.500433,191.280476 L428.155709,191.280476 C428.434256,191.280476 428.434689,190.847576 428.155709,190.847576" id="Fill-3" fill="#F0F3FE"></path>
                <path d="M481.293901,245.457273 L448.079369,245.457273 C446.248486,244.418745 445.012327,242.451645 445.012327,240.194502 C445.012327,239.172857 445.265787,238.210952 445.712587,237.367662 L446.780926,237.367662 C450.118296,237.367662 452.823746,234.65987 452.823746,231.31961 C452.823746,227.979351 450.118296,225.271991 446.780926,225.271991 L397.816825,225.271991 C394.479455,225.271991 391.774005,227.979351 391.774005,231.31961 C391.774005,234.65987 394.479455,237.367662 397.816825,237.367662 L435.868728,237.367662 C436.315528,238.211385 436.56942,239.172857 436.56942,240.194502 C436.56942,242.451645 435.333261,244.418312 433.502811,245.457273 L432.329369,245.457273 C428.991998,245.457273 426.286981,248.165065 426.286981,251.504892 C426.286981,254.845152 428.991998,257.552511 432.329369,257.552511 L481.293901,257.552511 C484.630839,257.552511 487.336289,254.845152 487.336289,251.504892 C487.336289,248.165065 484.630839,245.457273 481.293901,245.457273" id="Fill-5" fill="#F0F3FE"></path>
                <path d="M238.1484,224.304545 L257.266912,224.304545 C258.320978,223.70671 259.03205,222.574242 259.03205,221.275108 C259.03205,220.687229 258.886289,220.13355 258.629369,219.647835 L258.014317,219.647835 C256.093469,219.647835 254.536375,218.089394 254.536375,216.166883 C254.536375,214.243939 256.093469,212.685498 258.014317,212.685498 L286.199005,212.685498 C288.11942,212.685498 289.676946,214.243939 289.676946,216.166883 C289.676946,218.089394 288.11942,219.647835 286.199005,219.647835 L264.295458,219.647835 C264.038538,220.13355 263.892344,220.687229 263.892344,221.275108 C263.892344,222.574242 264.603849,223.706277 265.657483,224.304545 L266.332656,224.304545 C268.253936,224.304545 269.811029,225.862987 269.811029,227.785931 C269.811029,229.708009 268.253936,231.266883 266.332656,231.266883 L238.1484,231.266883 C236.227552,231.266883 234.670026,229.708009 234.670026,227.785931 C234.670026,225.862987 236.227552,224.304545 238.1484,224.304545" id="Fill-7" fill="#F0F3FE"></path>
                <mask id="mask-2" fill="white">
                    <use xlink:href="#path-1"></use>
                </mask>
                <g id="Clip-10"></g>
                <polygon id="Fill-9" fill="#F0F3FE" mask="url(#mask-2)" points="177.448097 148.942424 421.448962 148.942424 421.448962 148.888312 177.448097 148.888312"></polygon>
                <polygon id="Stroke-11" stroke="#202942" mask="url(#mask-2)" points="178.448962 148.980168 421.448962 148.980168 421.448962 148.917668 178.448962 148.917668"></polygon>
                <polygon id="Fill-12" fill="#F0F3FE" mask="url(#mask-2)" points="177.321799 182.245887 177.574394 182.245887 177.574394 148.942424 177.321799 148.942424"></polygon>
                <polygon id="Stroke-13" fill="#202942" mask="url(#mask-2)" points="177.602378 302.937638 178.770378 302.937638 178.770378 148.942424 177.602378 148.942424"></polygon>
                <polygon id="Fill-14" fill="#F0F3FE" mask="url(#mask-2)" points="394.477509 295.564502 394.730104 295.564502 394.730104 148.942424 394.477509 148.942424"></polygon>
                <polygon id="Stroke-15" stroke="#202942" mask="url(#mask-2)" points="394.477509 295.564502 394.730104 295.564502 394.730104 148.942424 394.477509 148.942424"></polygon>
                <polygon id="Fill-16" fill="#F0F3FE" mask="url(#mask-2)" points="356.147059 295.564502 356.399654 295.564502 356.399654 148.942424 356.147059 148.942424"></polygon>
                <polygon id="Stroke-17" stroke="#202942" mask="url(#mask-2)" points="356.147059 295.564502 356.399654 295.564502 356.399654 148.942424 356.147059 148.942424"></polygon>
                <path d="M180.086029,188.195844 L183.422967,195.517922 L199.858521,159.453853 C199.858521,159.453853 200.559213,158.168571 200.441998,155.714026 C200.325649,153.259913 200.441998,148.585455 206.397448,145.663377 C212.352465,142.741732 219.592085,144.494978 220.292344,145.079394 C220.292344,145.079394 220.876254,145.663377 220.876254,146.481991 C220.876254,147.29974 221.2266,148.234805 214.687673,148.936104 C212.819593,149.403636 210.951081,150.922684 215.038019,151.390216 C219.124957,151.857749 223.795372,153.026147 227.181618,150.455152 C230.567863,147.884156 236.873227,142.274632 239.091652,142.975931 C241.310078,143.676797 240.333434,145.597576 240.015528,146.297576 C239.697189,146.998009 231.813106,154.31619 231.813106,154.31619 L236.963192,151.910996 C236.963192,151.910996 239.150476,150.460346 240.504715,151.910996 C241.858953,153.361645 240.206272,155.2071 239.252552,155.843463 C238.298832,156.479827 233.911289,158.7071 233.911289,158.7071 L237.916912,158.198442 C237.916912,158.198442 240.079109,157.81619 240.523746,158.898442 C240.969247,159.98026 241.731791,161.062078 236.073054,163.098442 C230.696324,165.033506 226.746064,165.922684 214.34814,166.392381 C213.134905,166.438701 212.078676,167.24303 211.713192,168.401472 L199.475303,207.194978 C199.475303,207.194978 198.438538,213.457316 197.715355,216.35342 C196.991739,219.249524 194.201514,226.28329 193.271151,229.489784 C192.34122,232.695844 190.997794,238.591948 185.417344,239.212294 C184.280234,239.212294 180.168642,238.316623 179.175995,236.188052 C178.184213,234.059481 172.119334,230.130476 168.230493,220.107532 C164.341652,210.084589 158.410856,204.927013 158.410856,204.927013 L180.086029,188.195844 Z" id="Fill-18" fill="#ECBFB2" mask="url(#mask-2)"></path>
                <path d="M105.717777,85.4758442 C105.717777,85.4758442 110.474265,80.2576623 118.306012,80.1425108 C126.55558,80.0208658 138.004974,85.4576623 142.31077,104.407879 C145.087587,112.694026 141.972535,121.786667 153.424957,127.501818 C164.135597,132.84684 170.188365,137.964156 168.224697,155.713074 L81.22859,154.059827 C81.22859,154.059827 76.0447664,140.472381 83.3021194,131.133853 C90.5590398,121.795325 87.0343858,104.36329 88.6931228,101.250303 C90.3518599,98.1377489 94.4085208,86.1836364 105.717777,85.4758442" id="Fill-19" fill="#202942" mask="url(#mask-2)"></path>
                <path d="M71.554109,145.679654 L52.5683824,143.115584 L82.4719291,116.954113 C82.4719291,116.954113 88.6678633,117.950649 92.6449394,114.714286 C92.6449394,114.714286 94.8339533,104.224675 94.6674308,102.605628 C94.5004758,100.98658 106.490528,91.8658009 106.490528,91.8658009 C106.490528,91.8658009 105.011289,89.04329 96.8413062,91.9688312 C88.6713235,94.8943723 87.2357699,96.8272727 80.8283304,103.884848 C78.4602509,107.104329 76.5471886,108.491342 72.1250433,110.28658 C67.7028979,112.081385 42.1267734,123.496537 38.1047145,126.291775 C34.0826557,129.08658 26.3434689,133.306494 22.3906142,139.664069 C21.0766003,142.774892 20.2487457,146.281385 21.570545,150.458874 C22.8923443,154.635931 37.4900952,163.992641 60.7872405,172.299134 L71.554109,145.679654 Z" id="Fill-20" fill="#ECBFB2" mask="url(#mask-2)"></path>
                <path d="M127.459775,297.264545 C127.459775,297.264545 127.58737,292.76368 124.693339,280.375801 C124.275519,278.587489 120.930796,268.040736 119.323097,267.155455 C115.262976,262.406537 115.065744,261.972338 114.54974,258.967576 L117.472318,238.562814 L147.391869,242.439437 C147.391869,242.439437 147.907007,245.270173 147.391869,246.660649 C147.391869,246.660649 170.341696,250.897013 177.448097,297.584026 L127.459775,297.264545 Z" id="Fill-21" fill="#53B785" mask="url(#mask-2)"></path>
                <path d="M177.448227,297.583939 C174.222448,278.879177 165.509645,257.586537 143.685683,246.270087 L142.525649,239.212511 L102.541652,239.212511 C102.541652,239.212511 101.21423,243.278745 101.21423,247.30039 C101.21423,251.322035 97.9650952,243.762727 90.0740917,275.524632 C87.4114619,286.242381 85.7012543,292.603853 84.5217561,297.583939 L177.448227,297.583939 Z" id="Stroke-22" stroke="#202942" mask="url(#mask-2)"></path>
                <path d="M88.8530709,191.555065 C80.5550606,186.518268 63.0935554,176.431688 60.787327,172.299221 C60.787327,165.64381 66.8362024,144.380606 66.8362024,144.380606 L126.276081,153.804848 C126.276081,153.804848 163.624265,149.94381 170.895026,158.225628 C178.164922,166.507013 182.310251,191.064156 182.310251,191.064156 L160.760078,203.466753 C162.217258,215.668485 164.368642,240.200519 158.390268,242.095325 C150.406704,244.625628 104.38551,242.781905 94.9188149,239.541645 C91.3353374,238.314805 90.5018599,235.125628 90.5018599,235.125628 L93.0459775,199.007446 C93.0459775,195.959827 91.4568772,193.135584 88.8530709,191.555065" id="Fill-23" fill="#4769BE" mask="url(#mask-2)"></path>
                <path d="M310.790398,132.307489 L304.45519,132.307489 C304.972924,133.008355 305.341869,133.855108 305.488495,134.799697 C305.933131,137.664632 304.190052,140.313983 301.595761,140.717013 C299.001471,141.120476 296.538235,139.124805 296.093599,136.25987 C295.86609,134.794935 296.213408,133.388442 296.95173,132.307489 L291.284775,132.307489 L292.260554,148.595368 L316.754931,148.595368 L310.790398,132.307489 Z" id="Fill-24" fill="#8BA9E6" mask="url(#mask-2)"></path>
                <path d="M169.286419,170.19961 C169.286419,171.155887 168.512197,171.931212 167.556315,171.931212 L152.497491,171.931212 C151.542042,171.931212 150.767388,171.155887 150.767388,170.19961 L150.767388,158.303506 C150.767388,157.347229 151.542042,156.571905 152.497491,156.571905 L167.556315,156.571905 C168.512197,156.571905 169.286419,157.347229 169.286419,158.303506 L169.286419,170.19961 Z M169.286419,186.857619 C169.286419,187.813896 168.512197,188.589221 167.556315,188.589221 L152.497491,188.589221 C151.542042,188.589221 150.767388,187.813896 150.767388,186.857619 L150.767388,174.961515 C150.767388,174.005238 151.542042,173.229913 152.497491,173.229913 L167.556315,173.229913 C168.512197,173.229913 169.286419,174.005238 169.286419,174.961515 L169.286419,186.857619 Z M149.46981,170.19961 C149.46981,171.155887 148.695588,171.931212 147.739706,171.931212 L132.68045,171.931212 C131.725,171.931212 130.950346,171.155887 130.950346,170.19961 L130.950346,158.303506 C130.950346,157.347229 131.725,156.571905 132.68045,156.571905 L147.739706,156.571905 C148.695588,156.571905 149.46981,157.347229 149.46981,158.303506 L149.46981,170.19961 Z M149.46981,186.857619 C149.46981,187.813896 148.695588,188.589221 147.739706,188.589221 L132.68045,188.589221 C131.725,188.589221 130.950346,187.813896 130.950346,186.857619 L130.950346,173.229913 L147.739706,173.229913 C148.695588,173.229913 149.46981,174.005238 149.46981,174.961515 L149.46981,186.857619 Z M149.46981,203.515628 C149.46981,204.471905 148.695588,205.247229 147.739706,205.247229 L132.68045,205.247229 C131.725,205.247229 130.950346,204.471905 130.950346,203.515628 L130.950346,191.619524 C130.950346,190.663247 131.725,189.887922 132.68045,189.887922 L147.739706,189.887922 C148.695588,189.887922 149.46981,190.663247 149.46981,191.619524 L149.46981,203.515628 Z M149.46981,220.173203 C149.46981,221.129913 148.695588,221.904805 147.739706,221.904805 L132.68045,221.904805 C131.725,221.904805 130.950346,221.129913 130.950346,220.173203 L130.950346,208.277532 C130.950346,207.321255 131.725,206.545931 132.68045,206.545931 L147.739706,206.545931 C148.695588,206.545931 149.46981,207.321255 149.46981,208.277532 L149.46981,220.173203 Z M149.46981,236.831212 C149.46981,237.787922 148.695588,238.562814 147.739706,238.562814 L132.68045,238.562814 C131.725,238.562814 130.950346,237.787922 130.950346,236.831212 L130.950346,224.935108 C130.950346,223.978831 131.725,223.203506 132.68045,223.203506 L147.739706,223.203506 C148.695588,223.203506 149.46981,223.978831 149.46981,224.935108 L149.46981,236.831212 Z M129.652768,170.19961 C129.652768,171.155887 128.878547,171.931212 127.922664,171.931212 L112.863408,171.931212 C111.907958,171.931212 111.133304,171.155887 111.133304,170.19961 L111.133304,158.303506 C111.133304,157.347229 111.907958,156.571905 112.863408,156.571905 L127.922664,156.571905 C128.878547,156.571905 129.652768,157.347229 129.652768,158.303506 L129.652768,170.19961 Z M129.652768,186.857619 C129.652768,187.813896 128.878547,188.589221 127.922664,188.589221 L112.863408,188.589221 C111.907958,188.589221 111.133304,187.813896 111.133304,186.857619 L111.133304,174.961515 C111.133304,174.005238 111.907958,173.229913 112.863408,173.229913 L129.652768,173.229913 L129.652768,186.857619 Z M129.652768,203.515628 C129.652768,204.471905 128.878547,205.247229 127.922664,205.247229 L112.863408,205.247229 C111.907958,205.247229 111.133304,204.471905 111.133304,203.515628 L111.133304,191.619524 C111.133304,190.663247 111.907958,189.887922 112.863408,189.887922 L127.922664,189.887922 C128.878547,189.887922 129.652768,190.663247 129.652768,191.619524 L129.652768,203.515628 Z M129.652768,220.173203 C129.652768,221.129913 128.878547,221.904805 127.922664,221.904805 L112.863408,221.904805 C111.907958,221.904805 111.133304,221.129913 111.133304,220.173203 L111.133304,208.277532 C111.133304,207.321255 111.907958,206.545931 112.863408,206.545931 L127.922664,206.545931 C128.878547,206.545931 129.652768,207.321255 129.652768,208.277532 L129.652768,220.173203 Z M129.652768,236.831212 C129.652768,237.787922 128.878547,238.562814 127.922664,238.562814 L112.863408,238.562814 C111.907958,238.562814 111.133304,237.787922 111.133304,236.831212 L111.133304,224.935108 C111.133304,223.978831 111.907958,223.203506 112.863408,223.203506 L127.922664,223.203506 C128.878547,223.203506 129.652768,223.978831 129.652768,224.935108 L129.652768,236.831212 Z M109.835727,170.19961 C109.835727,171.155887 109.061505,171.931212 108.105623,171.931212 L93.0463668,171.931212 C92.090917,171.931212 91.316263,171.155887 91.316263,170.19961 L91.316263,158.303506 C91.316263,157.347229 92.090917,156.571905 93.0463668,156.571905 L108.105623,156.571905 C109.061505,156.571905 109.835727,157.347229 109.835727,158.303506 L109.835727,170.19961 Z M109.835727,186.857619 C109.835727,187.813896 109.061505,188.589221 108.105623,188.589221 L93.0463668,188.589221 C92.090917,188.589221 91.316263,187.813896 91.316263,186.857619 L91.316263,174.961515 C91.316263,174.005238 92.090917,173.229913 93.0463668,173.229913 L108.105623,173.229913 C109.061505,173.229913 109.835727,174.005238 109.835727,174.961515 L109.835727,186.857619 Z M90.0186851,170.19961 C90.0186851,171.155887 89.2444637,171.931212 88.2885813,171.931212 L73.2297578,171.931212 C72.274308,171.931212 71.499654,171.155887 71.499654,170.19961 L71.499654,158.303506 C71.499654,157.347229 72.274308,156.571905 73.2297578,156.571905 L88.2885813,156.571905 C89.2444637,156.571905 90.0186851,157.347229 90.0186851,158.303506 L90.0186851,170.19961 Z M172.3141,173.229913 L178.011765,173.229913 C177.875952,172.79658 177.737111,172.36368 177.595242,171.931212 L172.3141,171.931212 C171.358651,171.931212 170.583997,171.155887 170.583997,170.19961 L170.583997,158.303506 C170.583997,158.179264 170.59827,158.058485 170.623356,157.941602 C169.525606,156.839004 167.871626,155.96368 165.837457,155.273203 L152.497491,155.273203 C151.542042,155.273203 150.767388,154.497879 150.767388,153.541602 L150.767388,153.029048 C150.335727,153.010433 149.902768,152.994416 149.46981,152.98013 L149.46981,153.541602 C149.46981,154.497879 148.695588,155.273203 147.739706,155.273203 L132.68045,155.273203 C131.725,155.273203 130.950346,154.497879 130.950346,153.541602 L130.950346,153.416494 C130.488408,153.449394 130.056747,153.480996 129.652768,153.512165 L129.652768,153.541602 C129.652768,154.497879 128.878547,155.273203 127.922664,155.273203 L112.863408,155.273203 C111.907958,155.273203 111.133304,154.497879 111.133304,153.541602 L111.133304,151.403939 L109.835727,151.197879 L109.835727,153.541602 C109.835727,154.497879 109.061505,155.273203 108.105623,155.273203 L93.0463668,155.273203 C92.090917,155.273203 91.316263,154.497879 91.316263,153.541602 L91.316263,148.261948 L90.0186851,148.05632 L90.0186851,153.541602 C90.0186851,154.497879 89.2444637,155.273203 88.2885813,155.273203 L73.2297578,155.273203 C72.274308,155.273203 71.499654,154.497879 71.499654,153.541602 L71.499654,145.119957 L70.2020761,144.914329 L70.2020761,153.541602 C70.2020761,154.497879 69.4278547,155.273203 68.4719723,155.273203 L63.9529412,155.273203 C63.8465398,155.701775 63.7401384,156.135541 63.633737,156.571905 L68.4719723,156.571905 C69.4278547,156.571905 70.2020761,157.347229 70.2020761,158.303506 L70.2020761,170.19961 C70.2020761,171.155887 69.4278547,171.931212 68.4719723,171.931212 L60.7933391,171.931212 C60.7894464,172.057619 60.7872837,172.181429 60.7872837,172.299177 C60.9451557,172.581861 61.1800173,172.894848 61.4719723,173.229913 L68.4719723,173.229913 C69.4278547,173.229913 70.2020761,174.005238 70.2020761,174.961515 L70.2020761,180.034675 C70.6285467,180.318658 71.0597751,180.604372 71.499654,180.891385 L71.499654,174.961515 C71.499654,174.005238 72.274308,173.229913 73.2297578,173.229913 L88.2885813,173.229913 C89.2444637,173.229913 90.0186851,174.005238 90.0186851,174.961515 L90.0186851,186.857619 C90.0186851,187.813896 89.2444637,188.589221 88.2885813,188.589221 L83.9243945,188.589221 C84.6722318,189.039004 85.3962803,189.473203 86.0870242,189.887922 L88.2885813,189.887922 C89.2444637,189.887922 90.0186851,190.663247 90.0186851,191.619524 L90.0186851,192.407835 C90.5031142,192.825152 90.9391003,193.288788 91.316263,193.794848 L91.316263,191.619524 C91.316263,190.663247 92.090917,189.887922 93.0463668,189.887922 L108.105623,189.887922 C109.061505,189.887922 109.835727,190.663247 109.835727,191.619524 L109.835727,203.515628 C109.835727,204.471905 109.061505,205.247229 108.105623,205.247229 L92.6069204,205.247229 L92.5152249,206.545931 L108.105623,206.545931 C109.061505,206.545931 109.835727,207.321255 109.835727,208.277532 L109.835727,220.173203 C109.835727,221.129913 109.061505,221.904805 108.105623,221.904805 L93.0463668,221.904805 C92.366436,221.904805 91.7838235,221.508701 91.5013841,220.937273 L90.5018166,235.125584 C90.5018166,235.125584 90.7020761,235.881429 91.316263,236.797013 L91.316263,224.935108 C91.316263,223.978831 92.090917,223.203506 93.0463668,223.203506 L108.105623,223.203506 C109.061505,223.203506 109.835727,223.978831 109.835727,224.935108 L109.835727,236.831212 C109.835727,237.787922 109.061505,238.562814 108.105623,238.562814 L93.025173,238.562814 C93.5502595,238.942468 94.1722318,239.285758 94.9192042,239.541602 C95.2358131,239.649827 95.5961073,239.756753 95.991436,239.861515 L108.105623,239.861515 C109.061505,239.861515 109.835727,240.63684 109.835727,241.593117 L109.835727,241.86974 C110.263495,241.909134 110.696021,241.948095 111.133304,241.98619 L111.133304,241.593117 C111.133304,240.63684 111.907958,239.861515 112.863408,239.861515 L127.922664,239.861515 C128.878547,239.861515 129.652768,240.63684 129.652768,241.593117 L129.652768,243.072771 C130.086159,243.087489 130.519118,243.101342 130.950346,243.114762 L130.950346,241.593117 C130.950346,240.63684 131.725,239.861515 132.68045,239.861515 L147.739706,239.861515 C148.695588,239.861515 149.46981,240.63684 149.46981,241.593117 L149.46981,243.119524 C149.914879,243.100043 150.345242,243.078831 150.767388,243.055455 L150.767388,241.593117 C150.767388,240.63684 151.542042,239.861515 152.497491,239.861515 L160.544637,239.861515 C160.732353,239.470606 160.902336,239.03684 161.05718,238.562814 L152.497491,238.562814 C151.542042,238.562814 150.767388,237.787922 150.767388,236.831212 L150.767388,224.935108 C150.767388,223.978831 151.542042,223.203506 152.497491,223.203506 L162.321021,223.203506 C162.309775,222.772338 162.296799,222.339437 162.281228,221.904805 L152.497491,221.904805 C151.542042,221.904805 150.767388,221.129913 150.767388,220.173203 L150.767388,208.277532 C150.767388,207.321255 151.542042,206.545931 152.497491,206.545931 L161.111246,206.545931 C161.063235,206.103074 161.015225,205.66974 160.967215,205.247229 L152.497491,205.247229 C151.542042,205.247229 150.767388,204.471905 150.767388,203.515628 L150.767388,191.619524 C150.767388,190.663247 151.542042,189.887922 152.497491,189.887922 L167.556315,189.887922 C168.512197,189.887922 169.286419,190.663247 169.286419,191.619524 L169.286419,198.559784 L170.583997,197.81303 L170.583997,191.619524 C170.583997,190.663247 171.358651,189.887922 172.3141,189.887922 L182.09827,189.887922 C182.031228,189.527316 181.948183,189.091385 181.849567,188.589221 L172.3141,188.589221 C171.358651,188.589221 170.583997,187.813896 170.583997,186.857619 L170.583997,174.961515 C170.583997,174.005238 171.358651,173.229913 172.3141,173.229913 L172.3141,173.229913 Z" id="Fill-25" fill="#EFF2F9" mask="url(#mask-2)"></path>
                <path d="M101.189749,121.564892 C101.189749,121.564892 100.097189,115.222468 95.071237,116.534589 C90.7260813,118.960563 94.7485727,124.501688 96.6054066,125.566623 C98.4622405,126.631558 101.189749,126.770087 101.189749,126.770087 L101.189749,121.564892 Z" id="Fill-26" fill="#BF7A61" mask="url(#mask-2)"></path>
                <path d="M132.357396,119.491299 C132.357396,119.491299 133.449524,113.148874 138.475908,114.460996 C142.820631,116.886537 138.79814,122.427662 136.941306,123.492597 C135.084472,124.557532 132.357396,124.696494 132.357396,124.696494 L132.357396,119.491299 Z" id="Fill-27" fill="#E2A991" mask="url(#mask-2)"></path>
                <path d="M122.957569,172.255455 L122.957569,172.255455 C117.128849,172.793117 110.533694,168.274069 109.996497,162.440303 L108.387933,133.374502 L128.456704,131.522987 L135.115441,158.438139 C136.179888,164.542035 129.122794,171.686623 122.957569,172.255455" id="Fill-28" fill="#E6AB9A" mask="url(#mask-2)"></path>
                <path d="M109.384516,151.380476 C128.942474,141.354502 123.239187,140.044113 123.239187,140.044113 L108.719723,139.362727 L109.384516,151.380476 Z" id="Fill-29" fill="#CC8475" mask="url(#mask-2)"></path>
                <path d="M135.115571,123.050649 C135.115571,136.658442 128.026471,144.051948 114.466349,143.061039 C103.907958,142.289177 96.1034602,132.029437 96.1034602,118.421645 C96.1034602,104.81342 100.870329,93.7822511 114.466349,93.7822511 C128.06237,93.7822511 135.115571,109.442424 135.115571,123.050649" id="Fill-30" fill="#ECBFB2" mask="url(#mask-2)"></path>
                <path d="M199.858478,159.45381 C199.858478,159.45381 200.618426,165.739957 211.884862,167.978485 L211.588149,168.859437 C211.588149,168.859437 201.142647,168.155974 198.327768,162.812684 L199.858478,159.45381 Z" id="Fill-31" fill="#202942" mask="url(#mask-2)"></path>
                <polygon id="Fill-32" fill="#D9DDEE" mask="url(#mask-2)" points="0 299.578355 499.653547 299.578355 499.653547 295.58961 0 295.58961"></polygon>
                <path d="M307.646972,272.821948 L329.076903,272.821948 C329.917734,272.821948 330.557872,273.577792 330.419031,274.408095 L327.085554,294.426277 C326.976125,295.082987 326.408651,295.564805 325.743426,295.564805 L311.737803,295.564805 C311.091176,295.564805 310.534083,295.109394 310.404325,294.475195 L306.313495,274.457013 C306.141349,273.612424 306.785813,272.821948 307.646972,272.821948" id="Fill-33" fill="#202942" mask="url(#mask-2)"></path>
                <path d="M318.883218,265.191079 C318.883218,265.191079 297,264.31965 297,250.95991 C297,244.570732 302.947232,243.28978 304.501298,238.7361 C306.055363,234.182854 300.150087,231.213157 301.082612,223.095841 C301.704152,217.948655 307.608997,218.542594 309.473616,209.633503 C309.473616,205.872031 311.027682,207.257745 305.433391,199.536533 C302.947232,195.774629 303.879758,192.607529 311.959775,185.678092 C314.446367,182.312291 310.095588,178.94649 312.270761,175.581122 C314.446367,172.215754 318.175606,170.037832 326.256055,171.423546 C334.336505,172.809693 334.336505,179.342594 329.985294,182.90623 C329.985294,182.90623 328.022924,186.865971 332.889273,190.627442 C337.75519,194.388914 332.373702,200.526577 332.889273,204.485884 C333.403979,208.445624 342.105969,212.801035 340.552336,219.334369 C338.99827,225.867702 330.91782,227.451252 330.91782,232.202767 C330.91782,236.68978 341.225779,240.117486 340.908737,246.987183 C340.870242,247.818351 340.916522,248.650386 341.09083,249.474196 C341.859429,253.117053 342.030277,263.65991 318.883218,265.191079" id="Fill-34" fill="#6DC2BF" mask="url(#mask-2)"></path>
                <path d="M319.21237,193.829481 C319.21237,193.829481 323.737024,243.791385 317.402249,275.492251" id="Stroke-35" stroke="#202942" mask="url(#mask-2)"></path>
                <polygon id="Fill-36" fill="#E2E8F7" mask="url(#mask-2)" points="24.6343426 249.158268 33.8934256 253.963463 24.6343426 262.887273 30.8211938 268.853074 40.7377163 259.511515 44.4712803 266.517576 52.5218858 241.412381"></polygon>
                <polygon id="Stroke-37" stroke="#F0F3FE" mask="url(#mask-2)" points="24.6343426 249.158268 33.8934256 253.963463 24.6343426 262.887273 30.8211938 268.853074 40.7377163 259.511515 44.4712803 266.517576 52.5218858 241.412381"></polygon>
                <path d="M115.915052,89.4864935 C112.493772,89.4310823 109.513668,89.7739394 106.910727,90.4180952 L106.496799,86.8332468 C106.496799,86.8332468 96.2982699,84.0942857 90.7948097,97.8154978 C85.290917,111.536277 89.8224913,119.83671 89.8224913,119.83671 L91.1546713,125.043636 C91.1546713,125.043636 97.1719723,121.234113 97.6442907,116.270043 C98.3847751,108.489091 104.049135,104.348398 106.827682,103.310736 C122.994204,97.2735065 115.915052,89.4864935 115.915052,89.4864935" id="Fill-38" fill="#202942" mask="url(#mask-2)"></path>
                <path d="M124.824092,90.3077056 C110.021756,85.9834632 105.795112,95.654026 105.795112,95.654026 L115.54122,99.0774026 C115.565009,100.59645 116.798573,104.058788 125.987587,108.146667 C127.363452,109.282597 131.933953,112.794719 132.884213,121.563117 C132.884213,121.563117 137.717258,111.752727 131.822794,105.027186 L139.04295,107.332381 C139.04295,107.332381 139.626427,94.632381 124.824092,90.3077056" id="Fill-39" fill="#202942" mask="url(#mask-2)"></path>
                <path d="M101.176644,113.011515 C99.1117647,113.226667 96.3621972,112.412381 94.9223183,114.395931 C93.841436,115.885108 93.8812284,118.467359 94.3288927,120.172554 C94.9296713,122.459134 97.5862457,122.214545 99.4724913,122.232294 C102.051644,122.256537 104.65026,121.956104 106.878201,120.561299 C107.113495,120.414113 106.896799,120.039221 106.659775,120.187706 C104.863927,121.311948 102.824135,121.707186 100.730709,121.785108 C98.8967993,121.853506 95.3647924,122.290736 94.7462803,120.057403 C94.3176471,118.510649 94.3020761,116.025801 95.2562284,114.687273 C96.5719723,112.838788 99.257526,113.643983 101.176644,113.444416 C101.450865,113.415844 101.453893,112.982944 101.176644,113.011515" id="Fill-40" fill="#F0F3FE" mask="url(#mask-2)"></path>
                <path d="M131.186116,116.335844 L133.917517,116.335844 C134.196064,116.335844 134.196497,115.902944 133.917517,115.902944 L131.186116,115.902944 C130.907569,115.902944 130.907137,116.335844 131.186116,116.335844" id="Fill-41" fill="#F0F3FE" mask="url(#mask-2)"></path>
                <path d="M108.083131,117.190866 C109.626384,116.935887 111.525606,116.295195 113.055882,116.735455 C113.324048,116.812511 113.438668,116.395195 113.171367,116.318139 C111.547664,115.851039 109.590052,116.505584 107.96808,116.77355 C107.694291,116.819004 107.810208,117.235887 108.083131,117.190866" id="Fill-42" fill="#F0F3FE" mask="url(#mask-2)"></path>
                <path d="M131.351687,117.904459 C131.233607,115.769394 130.721497,113.698398 128.756531,112.547316 C126.727119,111.359004 124.19468,111.572857 121.961116,111.871991 C119.631964,112.18368 117.183867,112.805758 115.289403,114.269827 C113.116393,115.948615 114.077898,118.14039 113.77859,120.485844 C113.769939,120.553377 113.82487,120.644719 113.885424,120.672857 C114.587846,120.995368 115.3266,121.465065 116.069247,121.675887 C116.728417,121.863333 117.585251,121.727835 118.271237,121.701861 C119.429542,121.658571 120.585251,121.565931 121.73577,121.425238 C123.852984,121.166797 125.94987,120.750779 128.003503,120.172857 C129.365095,119.789307 131.366393,119.649048 131.351687,117.904459 C131.349092,117.626104 130.916566,117.625238 130.919161,117.904459 C130.930407,119.250346 128.629369,119.550779 127.69122,119.809654 C126.770804,120.063766 125.842604,120.285844 124.907483,120.475887 C122.854715,120.892771 120.772102,121.152511 118.679974,121.251645 C117.944247,121.286277 116.962846,121.468961 116.259126,121.288874 C115.907483,121.199264 115.548054,120.962468 115.219766,120.811385 C115.044161,120.730866 114.263452,120.498398 114.180407,120.333896 C114.173919,120.321342 114.254369,119.923506 114.27513,119.78974 C114.343901,119.339091 114.241825,118.822641 114.214576,118.370693 C114.154022,117.382814 114.086981,116.352944 114.673919,115.487576 C115.23404,114.6629 116.229715,114.099697 117.106012,113.666797 C118.856012,112.802727 120.805407,112.421342 122.731445,112.212684 C124.567085,112.014416 126.564057,111.911818 128.259991,112.770693 C130.28724,113.7971 130.801946,115.790606 130.919161,117.904459 C130.934299,118.181515 131.366825,118.183247 131.351687,117.904459" id="Fill-43" fill="#F0F3FE" mask="url(#mask-2)"></path>
                <path d="M121.805709,117.57303 C121.805709,118.695541 121.103287,119.605498 120.236938,119.605498 C119.370588,119.605498 118.668599,118.695541 118.668599,117.57303 C118.668599,116.450519 119.370588,115.540563 120.236938,115.540563 C121.103287,115.540563 121.805709,116.450519 121.805709,117.57303" id="Fill-44" fill="#202942" mask="url(#mask-2)"></path>
                <path d="M105.179196,118.060693 C105.179196,119.183203 104.477206,120.09316 103.610856,120.09316 C102.744507,120.09316 102.042085,119.183203 102.042085,118.060693 C102.042085,116.938182 102.744507,116.028225 103.610856,116.028225 C104.477206,116.028225 105.179196,116.938182 105.179196,118.060693" id="Fill-45" fill="#202942" mask="url(#mask-2)"></path>
                <path d="M114.549913,258.967446 C114.549913,258.967446 114.549913,262.882597 120.295588,268.398182 C122.251903,270.275671 127.527855,281.48 127.381661,295.589524" id="Stroke-46" stroke="#202942" mask="url(#mask-2)"></path>
                <path d="M106.559991,129.329221 C106.408175,129.166017 106.522794,128.899351 106.745545,128.895887 C108.603244,128.868615 114.514144,128.695022 117.338971,127.588528 C120.665528,126.285931 115.0016,138.416234 106.559991,129.329221" id="Fill-47" fill="#FCF3F0" mask="url(#mask-2)"></path>
                <path d="M109.230363,117.972338 C108.729066,120.068009 108.196194,122.159351 107.725173,124.262381 C107.644723,124.620823 107.490311,124.974069 107.692301,125.310433 C107.852768,125.578398 108.383045,125.75632 108.626557,125.892251 C109.080277,126.145065 109.533997,126.397879 109.988149,126.650693 C110.231228,126.786623 110.449654,126.41303 110.206574,126.2771 C109.634775,125.958485 108.633478,125.618658 108.273183,125.062814 C107.997664,124.637706 108.12699,124.43987 108.242474,123.958052 C108.34282,123.538571 108.443166,123.119524 108.543512,122.700043 L109.647318,118.087489 C109.712197,117.816926 109.295242,117.701342 109.230363,117.972338" id="Fill-48" fill="#F4E4E1" mask="url(#mask-2)"></path>
                <path d="M349.772189,123.369654 L249.12513,123.369654 L249.12513,84.137619 C249.12513,82.8601299 250.159299,81.8250649 251.435683,81.8250649 L347.461635,81.8250649 C348.737587,81.8250649 349.772189,82.8601299 349.772189,84.137619 L349.772189,123.369654 Z" id="Fill-49" fill="#FFFFFF" mask="url(#mask-2)"></path>
                <path d="M250.422621,122.070952 L348.474524,122.070952 L348.474524,84.137619 C348.474524,83.5783117 348.020372,83.1237662 347.461548,83.1237662 L251.435597,83.1237662 C250.877206,83.1237662 250.422621,83.5783117 250.422621,84.137619 L250.422621,122.070952 Z M351.06968,124.668355 L247.827465,124.668355 L247.827465,84.137619 C247.827465,82.1462771 249.445978,80.5263636 251.435597,80.5263636 L347.461548,80.5263636 C349.451168,80.5263636 351.06968,82.1462771 351.06968,84.137619 L351.06968,124.668355 Z" id="Fill-50" fill="#8BA9E6" mask="url(#mask-2)"></path>
                <path d="M349.392474,134.266147 L249.422318,134.266147 C248.250173,134.266147 247.299913,133.315065 247.299913,132.141905 L247.299913,125.494286 C247.299913,124.320693 248.250173,123.36961 249.422318,123.36961 L349.392474,123.36961 C350.565052,123.36961 351.514879,124.320693 351.514879,125.494286 L351.514879,132.141905 C351.514879,133.315065 350.565052,134.266147 349.392474,134.266147" id="Fill-51" fill="#202942" mask="url(#mask-2)"></path>
                <path d="M282.365744,105.832944 L192.47301,105.832944 C189.503287,105.832944 187.095848,103.42342 187.095848,100.451126 L187.095848,49.1485281 C187.095848,45.6706061 189.912889,42.8515584 193.38737,42.8515584 L281.84974,42.8515584 C285.104066,42.8515584 287.742907,45.4922511 287.742907,48.7498268 L287.742907,100.451126 C287.742907,103.42342 285.335467,105.832944 282.365744,105.832944 Z" id="Stroke-52" stroke="#37475B" stroke-width="2" mask="url(#mask-2)"></path>
                <path d="M268.469161,99.4307359 L185.040095,99.4307359 C182.070372,99.4307359 179.663365,97.0212121 179.663365,94.0489177 L179.663365,42.7463203 C179.663365,39.2683983 182.479542,36.4493506 185.954888,36.4493506 L267.953157,36.4493506 C271.207483,36.4493506 273.846324,39.0900433 273.846324,42.347619 L273.846324,94.0489177 C273.846324,97.0212121 271.438452,99.4307359 268.469161,99.4307359" id="Fill-53" fill="#BFCAE0" mask="url(#mask-2)"></path>
                <polygon id="Fill-54" fill="#8BA9E6" mask="url(#mask-2)" points="229.004758 95.1658009 266.79628 95.1658009 266.79628 92.3099567 229.004758 92.3099567"></polygon>
                <path d="M273.846151,85.7890909 L179.663192,85.7890909 L179.663192,39.6094372 C179.663192,34.6769697 183.658002,30.6782684 188.586635,30.6782684 L265.321064,30.6782684 C270.029542,30.6782684 273.846151,34.4986147 273.846151,39.2107359 L273.846151,85.7890909 Z" id="Fill-55" fill="#202942" mask="url(#mask-2)"></path>
                <path d="M173.104801,64.2151082 C176.517431,61.93329 180.539057,62.5367532 182.743642,65.8384848 C184.947794,69.1393506 184.00359,73.14671 180.59096,75.4285281 C177.178763,77.7107792 173.117777,77.0506061 170.914057,73.7493074 C168.709905,70.4475758 169.692171,66.4969264 173.104801,64.2151082 M164.333607,39.8635931 C162.281272,36.7895671 159.131618,36.2618615 155.889836,38.4298268 C153.160164,40.255368 151.739749,42.9337229 151.17487,46.7696537 L143.6234,45.5627273 C144.375995,39.79 147.045545,34.5462771 152.277379,31.0471429 C159.386808,26.2925974 167.032137,26.5315584 171.858261,33.7605628 C177.597016,42.3562338 167.872967,50.3410823 174.122535,57.8536364 L166.786029,62.7601299 C159.416652,54.4324242 168.13378,45.555368 164.333607,39.8635931" id="Fill-56" fill="#53B785" mask="url(#mask-2)"></path>
                <path d="M214.175735,74.91329 C211.553763,74.91329 209.119074,74.1128571 207.100476,72.7435931 L224.002292,54.3435931 C225.752292,56.5128571 226.802033,59.2712987 226.802033,62.2760606 C226.802033,69.2552814 221.148919,74.91329 214.175735,74.91329 M201.54987,62.2760606 C201.54987,55.2968398 207.202552,49.6392641 214.175735,49.6392641 C216.797708,49.6392641 219.232829,50.4392641 221.250995,51.8085281 L204.349611,70.2085281 C202.599611,68.039697 201.54987,65.2812554 201.54987,62.2760606 M214.175735,45.7280087 C205.04468,45.7280087 197.641998,53.1370996 197.641998,62.2760606 C197.641998,71.4154545 205.04468,78.8241126 214.175735,78.8241126 C223.307223,78.8241126 230.709905,71.4154545 230.709905,62.2760606 C230.709905,53.1370996 223.307223,45.7280087 214.175735,45.7280087" id="Fill-57" fill="#F0F3FE" mask="url(#mask-2)"></path>
                <path d="M214.175735,74.91329 C211.553763,74.91329 209.119074,74.1128571 207.100476,72.7435931 L224.002292,54.3435931 C225.752292,56.5128571 226.802033,59.2712987 226.802033,62.2760606 C226.802033,69.2552814 221.148919,74.91329 214.175735,74.91329 Z M201.54987,62.2760606 C201.54987,55.2968398 207.202552,49.6392641 214.175735,49.6392641 C216.797708,49.6392641 219.232829,50.4392641 221.250995,51.8085281 L204.349611,70.2085281 C202.599611,68.039697 201.54987,65.2812554 201.54987,62.2760606 Z M214.175735,45.7280087 C205.04468,45.7280087 197.641998,53.1370996 197.641998,62.2760606 C197.641998,71.4154545 205.04468,78.8241126 214.175735,78.8241126 C223.307223,78.8241126 230.709905,71.4154545 230.709905,62.2760606 C230.709905,53.1370996 223.307223,45.7280087 214.175735,45.7280087 Z" id="Stroke-58" stroke="#F0F3FE" mask="url(#mask-2)"></path>
                <path d="M196.696064,21.3892208 C196.084472,19.7212554 196.949524,18.0087013 198.67487,17.375368 C200.399784,16.7416017 202.165787,17.4874892 202.777811,19.1554545 C203.399784,20.8528571 202.513538,22.5065368 200.788625,23.1398701 C199.063279,23.7736364 197.318036,23.0861905 196.696064,21.3892208 L196.696064,21.3892208 Z M191.749697,6.27190476 L190.00532,1.96497835 L195.355666,4.32900433e-05 L196.808088,4.4138961 L199.454715,14.7974459 L196.443036,15.9039394 L191.749697,6.27190476 Z" id="Fill-62" fill="#8BA9E6" mask="url(#mask-2)"></path>
                <path d="M413.543166,250.234805 C413.543166,251.52355 412.499481,252.568139 411.211851,252.568139 C409.924221,252.568139 408.880536,251.52355 408.880536,250.234805 C408.880536,248.946061 409.924221,247.901472 411.211851,247.901472 C412.499481,247.901472 413.543166,248.946061 413.543166,250.234805" id="Fill-63" fill="#202942" mask="url(#mask-2)"></path>
                <path d="M423.76795,250.234805 C423.76795,251.52355 422.724265,252.568139 421.436635,252.568139 C420.149438,252.568139 419.105753,251.52355 419.105753,250.234805 C419.105753,248.946061 420.149438,247.901472 421.436635,247.901472 C422.724265,247.901472 423.76795,248.946061 423.76795,250.234805" id="Fill-64" fill="#202942" mask="url(#mask-2)"></path>
                <path d="M433.993123,250.234805 C433.993123,251.52355 432.949438,252.568139 431.661375,252.568139 C430.374178,252.568139 429.330493,251.52355 429.330493,250.234805 C429.330493,248.946061 430.374178,247.901472 431.661375,247.901472 C432.949438,247.901472 433.993123,248.946061 433.993123,250.234805" id="Fill-65" fill="#202942" mask="url(#mask-2)"></path>
                <path d="M444.217863,250.234805 C444.217863,251.52355 443.174178,252.568139 441.886548,252.568139 C440.598919,252.568139 439.555234,251.52355 439.555234,250.234805 C439.555234,248.946061 440.598919,247.901472 441.886548,247.901472 C443.174178,247.901472 444.217863,248.946061 444.217863,250.234805" id="Fill-66" fill="#202942" mask="url(#mask-2)"></path>
                <path d="M413.543166,263.186104 C413.543166,264.474848 412.499481,265.519437 411.211851,265.519437 C409.924221,265.519437 408.880536,264.474848 408.880536,263.186104 C408.880536,261.897359 409.924221,260.852771 411.211851,260.852771 C412.499481,260.852771 413.543166,261.897359 413.543166,263.186104" id="Fill-67" fill="#202942" mask="url(#mask-2)"></path>
                <path d="M423.76795,263.186104 C423.76795,264.474848 422.724265,265.519437 421.436635,265.519437 C420.149438,265.519437 419.105753,264.474848 419.105753,263.186104 C419.105753,261.897359 420.149438,260.852771 421.436635,260.852771 C422.724265,260.852771 423.76795,261.897359 423.76795,263.186104" id="Fill-68" fill="#202942" mask="url(#mask-2)"></path>
                <path d="M431.661375,265.519437 C430.374178,265.519437 429.330493,264.474848 429.330493,263.186104 C429.330493,261.897359 430.374178,260.852771 431.661375,260.852771 C432.949438,260.852771 433.993123,261.897359 433.993123,263.186104 C433.993123,264.474848 432.949438,265.519437 431.661375,265.519437 Z" id="Fill-69" fill="#202942" mask="url(#mask-2)"></path>
                <path d="M444.217863,263.186104 C444.217863,264.474848 443.174178,265.519437 441.886548,265.519437 C440.598919,265.519437 439.555234,264.474848 439.555234,263.186104 C439.555234,261.897359 440.598919,260.852771 441.886548,260.852771 C443.174178,260.852771 444.217863,261.897359 444.217863,263.186104" id="Fill-70" fill="#202942" mask="url(#mask-2)"></path>
                <path d="M413.543166,276.137403 C413.543166,277.426147 412.499481,278.470736 411.211851,278.470736 C409.924221,278.470736 408.880536,277.426147 408.880536,276.137403 C408.880536,274.848658 409.924221,273.804069 411.211851,273.804069 C412.499481,273.804069 413.543166,274.848658 413.543166,276.137403" id="Fill-71" fill="#202942" mask="url(#mask-2)"></path>
                <path d="M423.76795,276.137403 C423.76795,277.426147 422.724265,278.470736 421.436635,278.470736 C420.149438,278.470736 419.105753,277.426147 419.105753,276.137403 C419.105753,274.848658 420.149438,273.804069 421.436635,273.804069 C422.724265,273.804069 423.76795,274.848658 423.76795,276.137403" id="Fill-72" fill="#202942" mask="url(#mask-2)"></path>
                <path d="M433.993123,276.137403 C433.993123,277.426147 432.949438,278.470736 431.661375,278.470736 C430.374178,278.470736 429.330493,277.426147 429.330493,276.137403 C429.330493,274.848658 430.374178,273.804069 431.661375,273.804069 C432.949438,273.804069 433.993123,274.848658 433.993123,276.137403" id="Fill-73" fill="#202942" mask="url(#mask-2)"></path>
                <path d="M444.217863,276.137403 C444.217863,277.426147 443.174178,278.470736 441.886548,278.470736 C440.598919,278.470736 439.555234,277.426147 439.555234,276.137403 C439.555234,274.848658 440.598919,273.804069 441.886548,273.804069 C443.174178,273.804069 444.217863,274.848658 444.217863,276.137403" id="Fill-74" fill="#202942" mask="url(#mask-2)"></path>
                <path d="M413.543166,289.088701 C413.543166,290.377446 412.499481,291.422035 411.211851,291.422035 C409.924221,291.422035 408.880536,290.377446 408.880536,289.088701 C408.880536,287.799957 409.924221,286.755368 411.211851,286.755368 C412.499481,286.755368 413.543166,287.799957 413.543166,289.088701" id="Fill-75" fill="#202942" mask="url(#mask-2)"></path>
                <path d="M423.76795,289.088701 C423.76795,290.377446 422.724265,291.422035 421.436635,291.422035 C420.149438,291.422035 419.105753,290.377446 419.105753,289.088701 C419.105753,287.799957 420.149438,286.755368 421.436635,286.755368 C422.724265,286.755368 423.76795,287.799957 423.76795,289.088701" id="Fill-76" fill="#202942" mask="url(#mask-2)"></path>
                <path d="M433.993123,289.088701 C433.993123,290.377446 432.949438,291.422035 431.661375,291.422035 C430.374178,291.422035 429.330493,290.377446 429.330493,289.088701 C429.330493,287.799957 430.374178,286.755368 431.661375,286.755368 C432.949438,286.755368 433.993123,287.799957 433.993123,289.088701" id="Fill-77" fill="#202942" mask="url(#mask-2)"></path>
                <path d="M444.217863,289.088701 C444.217863,290.377446 443.174178,291.422035 441.886548,291.422035 C440.598919,291.422035 439.555234,290.377446 439.555234,289.088701 C439.555234,287.799957 440.598919,286.755368 441.886548,286.755368 C443.174178,286.755368 444.217863,287.799957 444.217863,289.088701" id="Fill-78" fill="#202942" mask="url(#mask-2)"></path>
                <path d="M104.196324,112.590649 C105.124524,112.544329 106.000389,112.28329 106.795372,111.798009 C107.269853,111.508831 106.836029,110.759913 106.358521,111.050823 C105.693728,111.45645 104.975735,111.685887 104.196324,111.724848 C103.64269,111.752554 103.63923,112.618355 104.196324,112.590649" id="Fill-79" fill="#202942" mask="url(#mask-2)"></path>
                <path d="M114.462889,111.111039 C115.950779,111.504545 117.460727,111.667316 118.997924,111.605411 C119.553287,111.583333 119.55545,110.7171 118.997924,110.73961 C117.535986,110.798485 116.108218,110.650433 114.692993,110.275974 C114.154066,110.13355 113.924394,110.968182 114.462889,111.111039" id="Fill-80" fill="#202942" mask="url(#mask-2)"></path>
            </g>
        </g>
    </g>
</svg>