<?xml version="1.0" standalone="no"?><!DOCTYPE svg PUBLIC "-//W3C//DTD SVG 1.1//EN" "http://www.w3.org/Graphics/SVG/1.1/DTD/svg11.dtd"><svg t="1586484857974" class="icon" viewBox="0 0 1024 1024" version="1.1" xmlns="http://www.w3.org/2000/svg" p-id="2845" xmlns:xlink="http://www.w3.org/1999/xlink" width="200" height="200"><defs><style type="text/css"></style></defs><path d="M734.69375 287.26666667c0 0 90.5625-0.9 90.5625 88.7625 0 0 8.38125 86.79375-90.5625 88.70625 0 0-88.65 1.9125-87.75-88.70625C646.94375 375.97291667 645.9875 295.64791667 734.69375 287.26666667ZM913.0625 150.91666667c0 0 47.64375 3.7125 47.64375 45.73125l0 626.5125c0 0-2.8125 44.83125-47.64375 45.7875L913.0625 150.91666667ZM63.29375 823.21666667c0 0 1.9125 45.7875 45.7875 45.7875L913.0625 869.00416667l0-132.58125-87.6375 0-178.48125-181.18125-134.49375 135.3375L329.46875 464.67916667l-180.225 269.8875-40.10625 0.9L108.125 196.70416667 63.29375 196.70416667 63.29375 823.21666667ZM913.0625 150.91666667L109.08125 150.91666667c0 0-45.7875-0.95625-45.7875 45.73125L913.0625 196.64791667 913.0625 150.91666667Z" p-id="2846" fill="#e4e9f4"></path></svg>