<?xml version="1.0" standalone="no"?><!DOCTYPE svg PUBLIC "-//W3C//DTD SVG 1.1//EN" "http://www.w3.org/Graphics/SVG/1.1/DTD/svg11.dtd"><svg t="1587618735126" class="icon" viewBox="0 0 1024 1024" version="1.1" xmlns="http://www.w3.org/2000/svg" p-id="4185" xmlns:xlink="http://www.w3.org/1999/xlink" width="200" height="200"><defs><style type="text/css"></style></defs><path d="M305.024 757.64799969a43.88800031 43.88800031 0 0 0-12.89599969-31.11999938 43.99999969 43.99999969 0 0 0-62.22400031 0l-142.97599969 142.97599969a44.016 44.016 0 0 0 0 62.22400031 43.99999969 43.99999969 0 0 0 62.22399938 0L292.12800031 788.79999969a43.84000031 43.84000031 0 0 0 12.89599969-31.104zM879.99999969 435.99999969a290.4 290.4 0 1 1-85.056-205.344A288.49600031 288.49600031 0 0 1 879.99999969 435.99999969m88.00000031 0C968 227.00799969 798.59199969 57.60000031 589.59999969 57.60000031S211.20000031 227.00799969 211.20000031 435.99999969 380.60799969 814.4 589.59999969 814.4 968.00000001 644.99199969 968 435.99999969z" p-id="4186"></path></svg>